<?xml version="1.0" encoding="UTF-8"?>
<!DOCTYPE svg PUBLIC "-//W3C//DTD SVG 1.1//EN" "http://www.w3.org/Graphics/SVG/1.1/DTD/svg11.dtd">
<svg xmlns="http://www.w3.org/2000/svg" xml:space="preserve" width="6.71348in" height="6.38004in" version="1.1"
		 style="shape-rendering:geometricPrecision; text-rendering:geometricPrecision; image-rendering:optimizeQuality; fill-rule:evenodd; clip-rule:evenodd"
		 viewBox="0 0 3459.44 3287.62">
 <defs>
  <style type="text/css">
   <![CDATA[
    .fil1 {fill:#2B2A29;fill-rule:nonzero}
    .fil0 {fill:#2B2A29;fill-rule:nonzero}
   ]]>
  </style>
 </defs>
	<g id="Layer_x0020_1">
		<g id="_2550235619184">
   <g>
    <path style="fill: #f79432" class="fil0"
					d="M1556.99 830.66c0,-223.38 88.75,-426.64 233.12,-576.53 144.41,-149.97 345.06,-245.85 568.33,-254.13l19.02 538.85c-77.63,2.87 -147.78,36.57 -198.54,89.28 -50.07,51.98 -80.93,123.4 -80.93,202.53l-541 0z"/>
		 <path style="fill: #EEE" class="fil0"
					 d="M2638.98 830.67c0,223.38 -88.75,426.64 -233.12,576.53 -144.41,149.97 -345.06,245.85 -568.33,254.13l-19.01 -538.85c77.63,-2.87 147.78,-36.57 198.54,-89.28 50.07,-51.98 80.93,-123.4 80.93,-202.53l541 0z"/>
		 <path class="fil0" style="fill: #128308"
					 d="M2638.97 830.67c0,223.38 88.75,426.64 233.12,576.53 144.41,149.97 345.06,245.85 568.33,254.13l19.01 -538.85c-77.63,-2.87 -147.78,-36.57 -198.54,-89.28 -50.07,-51.98 -80.93,-123.4 -80.93,-202.53l-541 0z"/>
   </g>
			<g>
    <path class="fil1"
					d="M364.14 2492.35l-105.78 -27.75c-56.64,-15.03 -103.17,-33.81 -139.59,-56.36 -36.41,-22.54 -61.27,-47.4 -74.56,-74.56 -13.29,-27.17 -21.67,-49.71 -25.14,-67.63 -3.47,-17.92 -4.62,-39.59 -3.47,-65.02 1.16,-60.11 32.95,-113.58 95.37,-160.4 62.42,-46.82 135.83,-70.22 220.22,-70.22 91.33,0 169.36,21.96 234.1,65.89 64.74,43.93 97.68,111.55 98.84,202.88l-227.16 0c-1.16,-47.4 -31.79,-71.1 -91.9,-71.1 -26.59,0 -47.69,5.49 -63.29,16.48 -15.61,10.98 -22.84,25.72 -21.68,44.22 2.31,28.9 26.01,49.13 71.09,60.69l136.99 36.41c60.12,16.19 107.8,41.04 143.06,74.57 35.26,33.52 56.93,62.71 65.02,87.57 8.09,24.85 12.14,49.42 12.14,73.7 0,80.92 -34.97,143.35 -104.91,187.27 -69.94,43.93 -151.73,65.89 -245.36,65.89 -89.02,0 -167.34,-25.15 -234.96,-75.43 -67.63,-50.29 -102.02,-118.2 -103.17,-203.75l225.42 0c1.15,24.28 13.29,45.95 36.41,65.02 23.12,19.07 50.87,28.61 83.23,28.61 27.74,-1.16 51.15,-7.8 70.22,-19.94 19.08,-12.14 28.61,-28.03 28.61,-47.68 0,-17.34 -6.07,-31.22 -18.21,-41.62 -12.14,-10.41 -32.66,-19.65 -61.56,-27.74zm1248.5 -504.6l-499.39 1206.88 -254.91 0 194.21 -480.33 -312.13 -726.55 256.63 0 178.61 459.52 180.34 -459.52 256.63 0zm358.95 381.48l0 428.31 -241.03 0 0 -809.79 241.03 0 0 117.91c21.97,-40.46 54.62,-73.12 97.97,-97.97 43.35,-24.86 88.72,-37.28 136.12,-37.28 93.64,0 166.47,28.9 218.49,86.7 52.02,57.8 78.03,143.34 78.03,256.63l0 483.79 -241.03 0 0 -431.77c0,-52.02 -12.72,-91.9 -38.15,-119.65 -25.43,-27.74 -59.53,-41.62 -102.3,-41.62 -99.42,0 -149.13,54.91 -149.13,164.73zm825.4 326c-86.7,-79.77 -130.05,-181.5 -130.05,-305.19 0,-123.7 43.35,-224.56 130.05,-302.59 86.7,-78.03 190.17,-117.04 310.39,-117.04 71.68,0 138.43,15.03 200.28,45.08 61.85,30.05 112.42,72.25 151.73,126.58l-195.94 140.46c-34.68,-54.33 -86.7,-81.5 -156.06,-81.5 -53.18,0 -100,17.63 -140.46,52.89 -40.46,35.26 -60.69,80.63 -60.69,136.12 0,56.64 20.23,103.18 60.69,139.59 40.46,36.41 87.28,54.62 140.46,54.62 69.36,0 121.38,-27.17 156.06,-81.5l195.94 138.72c-38.15,54.34 -88.14,96.82 -149.99,127.45 -61.84,30.64 -129.18,45.95 -202.01,45.95 -120.23,0 -223.69,-39.88 -310.39,-119.65z"/>
				<path class="fil1"
							d="M1620.56 3191.11l-31.88 0 -53.99 -145.82 -52.29 145.82 -31.46 0 -75.67 -198.54 41.24 0 49.74 139.01 49.74 -139.01 37.41 0 49.74 139.01 49.74 -139.01 41.24 0 -73.55 198.54zm274.85 -24.87c-20.26,19.41 -44.85,29.12 -73.76,29.12 -28.91,0 -53.42,-9.63 -73.55,-28.91 -20.12,-19.28 -30.18,-44.35 -30.18,-75.25 0,-30.61 9.99,-55.41 29.97,-74.4 19.98,-18.99 44.57,-28.48 73.76,-28.48 29.19,0 53.85,9.5 73.97,28.48 20.12,18.99 30.18,43.79 30.18,74.4 0,30.61 -10.13,55.63 -30.4,75.04zm-120.31 -26.79c12.61,12.33 28.13,18.49 46.55,18.49 18.42,0 33.94,-6.16 46.55,-18.49 12.61,-12.32 18.92,-28.41 18.92,-48.25 0,-19.55 -6.31,-35.29 -18.92,-47.19 -12.61,-11.9 -28.13,-17.86 -46.55,-17.86 -18.42,0 -33.94,5.95 -46.55,17.86 -12.61,11.9 -18.92,27.64 -18.92,47.19 0,19.84 6.3,35.93 18.92,48.25zm240.84 -20.62l0 72.27 -38.69 0 0 -198.54 38.69 0 0 44.64c9.63,-32.6 28.06,-48.89 55.26,-48.89 15.59,0 27.07,2.55 34.44,7.65l-5.95 36.13c-9.35,-4.53 -19.13,-6.8 -29.33,-6.8 -18.14,0 -31.74,8.58 -40.81,25.72 -9.07,17.14 -13.61,39.75 -13.61,67.81zm167.5 -24.66l0 96.93 -38.26 0 0 -306.52 38.26 0 0 177.28 68.45 -69.29 52.71 0 -85.02 85.87 105.43 112.66 -51.02 0 -90.56 -96.93zm215.55 9.35c-18.99,-5.1 -33.02,-12.75 -42.09,-22.96 -9.07,-10.2 -12.75,-24.09 -11.05,-41.66 1.42,-14.46 8.78,-26.5 22.11,-36.14 13.32,-9.63 28.91,-14.45 46.76,-14.45 18.42,0 34.08,4.61 46.98,13.82 12.9,9.21 20.2,23.31 21.89,42.3l-36.99 0c-1.13,-7.08 -4.61,-12.61 -10.41,-16.58 -5.81,-3.97 -12.69,-5.95 -20.62,-5.95 -7.37,0 -13.82,1.63 -19.35,4.89 -5.52,3.26 -9,7.58 -10.41,12.97 -1.7,6.24 -1.56,11.48 0.42,15.73 3.12,6.52 10.92,11.61 23.39,15.3l29.33 7.22c34.29,8.5 51.44,27.78 51.44,57.82 0,17.86 -7.44,32.24 -22.32,43.15 -14.88,10.91 -33.09,16.36 -54.63,16.36 -18.99,0 -35.92,-5.81 -50.8,-17.43 -14.88,-11.62 -22.6,-27.06 -23.17,-46.34l35.29 0c1.7,10.49 7.08,18 16.15,22.53 8.79,5.39 19.27,7.65 31.46,6.8 9.07,-0.57 16.3,-3.26 21.68,-8.08 5.38,-4.82 8.21,-10.77 8.5,-17.86 0.29,-6.8 -1.98,-12.19 -6.8,-16.15 -4.81,-3.97 -11.34,-6.94 -19.55,-8.92l-27.21 -6.38zm180.25 -110.96l0 31.03c6.52,-11.05 16.15,-19.7 28.91,-25.93 12.75,-6.23 26.22,-9.35 40.39,-9.35 27.78,0 51.3,9.63 70.57,28.91 19.27,19.27 28.91,44.35 28.91,75.25 0,30.61 -9.57,55.41 -28.7,74.4 -19.13,18.99 -42.72,28.48 -70.78,28.48 -14.45,0 -28.06,-2.9 -40.81,-8.71 -12.75,-5.81 -22.25,-14.24 -28.49,-25.3l0 126.27 -38.68 0 0 -295.04 38.68 0zm0.43 100.33c0,20.12 6.52,35.92 19.55,47.4 13.04,11.48 28.2,17.22 45.49,17.22 18.42,0 33.73,-5.95 45.91,-17.86 12.19,-11.9 18.28,-27.49 18.28,-46.76 0,-19.56 -6.17,-35.57 -18.49,-48.04 -12.33,-12.47 -27.56,-18.7 -45.7,-18.7 -18.14,0 -33.52,6.03 -46.13,18.07 -12.61,12.04 -18.92,28.27 -18.92,48.68zm377.09 98.21l0 -30.61c-6.52,11.05 -16.15,19.63 -28.91,25.72 -12.75,6.09 -26.35,9.14 -40.81,9.14 -28.06,0 -51.86,-9.63 -71.42,-28.91 -19.55,-19.28 -29.33,-44.22 -29.33,-74.82 0,-30.89 9.78,-55.84 29.33,-74.83 19.56,-18.99 43.36,-28.48 71.42,-28.48 14.46,0 28.13,2.98 41.03,8.93 12.89,5.95 22.46,14.31 28.69,25.08l0 -29.76 38.26 0 0 198.54 -38.26 0zm-0.43 -99.91c0,-20.12 -6.66,-35.99 -19.98,-47.61 -13.32,-11.62 -28.62,-17.43 -45.91,-17.43 -18.42,0 -33.8,6.03 -46.13,18.07 -12.33,12.04 -18.49,27.7 -18.49,46.97 0,19.27 6.24,35.15 18.71,47.62 12.47,12.47 27.78,18.7 45.91,18.7 18.42,0 34.01,-5.95 46.76,-17.86 12.76,-11.9 19.13,-28.06 19.13,-48.46zm120.74 75.04c-20.41,-19.41 -30.61,-44.43 -30.61,-75.04 0,-30.61 10.2,-55.41 30.61,-74.4 20.41,-18.99 45.2,-28.48 74.4,-28.48 31.46,0 56.97,10.63 76.53,31.88l-29.34 24.66c-12.47,-12.47 -28.2,-18.7 -47.19,-18.7 -18.42,0 -34.15,6.03 -47.19,18.07 -13.04,12.04 -19.55,27.7 -19.55,46.97 0,19.56 6.52,35.57 19.55,48.04 13.04,12.47 28.77,18.7 47.19,18.7 18.99,0 34.72,-6.52 47.19,-19.55l29.76 24.66c-19.84,21.54 -45.49,32.31 -76.95,32.31 -29.19,0 -53.99,-9.71 -74.4,-29.12zm220.64 -89.92l123.29 0c-2.27,-16.44 -8.86,-29.41 -19.77,-38.9 -10.91,-9.49 -24.45,-14.24 -40.6,-14.24 -16.72,0 -30.82,4.75 -42.3,14.24 -11.48,9.5 -18.35,22.46 -20.62,38.9zm161.55 14.88c0,7.37 -0.14,12.47 -0.43,15.3l-161.13 0c2.27,16.44 9.29,29.55 21.05,39.33 11.76,9.77 26.14,14.67 43.15,14.67 12.19,0 23.38,-2.7 33.59,-8.08 10.2,-5.39 17.99,-12.9 23.38,-22.53 3.68,1.42 9.35,3.61 17.01,6.59 7.65,2.97 13.03,5.03 16.15,6.16 -8.22,17.01 -20.55,30.04 -36.99,39.11 -16.44,9.07 -34.58,13.6 -54.42,13.6 -28.91,0 -53.07,-9.63 -72.48,-28.91 -19.41,-19.28 -29.12,-44.35 -29.12,-75.25 0,-30.89 9.71,-55.76 29.12,-74.61 19.41,-18.85 43.57,-28.27 72.48,-28.27 28.63,0 52.22,9.42 70.79,28.27 18.56,18.85 27.85,43.72 27.85,74.61z"/>
   </g>
  </g>
 </g>
</svg>
